<?xml version="1.0" encoding="utf-8"?>
<!-- Generator: Adobe Illustrator 26.0.1, SVG Export Plug-In . SVG Version: 6.00 Build 0)  -->
<svg version="1.1" id="Layer_1" xmlns="http://www.w3.org/2000/svg" xmlns:xlink="http://www.w3.org/1999/xlink" x="0px" y="0px"
	 viewBox="0 0 7264.2 1882.09" style="enable-background:new 0 0 7264.2 1882.09;" xml:space="preserve">
<style type="text/css">
	.st0{fill:#606060;}
	.st1{fill:#2569E6;}
	.st2{fill:url(#SVGID_1_);}
	.st3{fill:url(#SVGID_00000097461269858881107890000018102579377421043633_);}
	.st4{fill:#FFFFFF;}
	.st5{fill:none;}
</style>
<path class="st0" d="M5757.01,531.39c-27.05-26.62-62.68-39.93-107.33-39.93h-326.29c-44.22,0-79.43,13.31-106.48,39.93
	c-26.62,26.62-40.36,62.25-40.36,106.9v194.92c0,44.65,13.74,80.29,40.36,106.9c27.05,26.62,62.25,39.93,106.48,39.93h265.33
	c28.33,0,51.95-4.72,70.84-13.74c18.46-9.02,33.49-21.9,44.65-37.78v87.16c0,27.48-7.3,48.94-21.9,63.97
	c-14.6,15.03-35.64,22.32-63.54,22.32h-396.28c-12.88,0-19.32,6.44-19.32,19.75v37.35c0,14.17,6.44,21.04,19.32,21.04h417.31
	c48.09,0,86.3-14.17,114.63-42.5c28.76-27.91,42.93-66.55,42.93-115.49V638.29C5797.36,593.64,5784.06,558.01,5757.01,531.39z
	 M5704.2,818.18c0,25.33-6.87,45.08-21.04,59.25c-14.17,14.6-33.49,21.9-58.39,21.9h-275.2c-25.33,0-45.08-7.3-59.25-21.9
	c-14.6-14.17-21.47-33.92-21.47-59.25V653.32c0-25.33,6.87-45.08,21.47-59.25c14.17-14.6,33.92-21.47,59.25-21.47h275.2
	c24.9,0,44.22,6.87,58.39,21.47c14.17,14.17,21.04,33.92,21.04,59.25V818.18z"/>
<path class="st0" d="M6003.02,287.1h-51.52c-14.17,0-21.04,6.87-21.04,20.61v74.28c0,12.88,6.87,19.32,21.04,19.32h51.52
	c13.74,0,20.61-6.44,20.61-19.32v-74.28C6023.62,293.97,6016.75,287.1,6003.02,287.1z M6089.31,899.33h-11.16
	c-20.18,0-34.35-4.72-42.5-13.74c-8.16-9.02-12.02-23.61-12.02-43.79V512.07c0-13.74-6.87-20.61-20.61-20.61h-51.52
	c-14.17,0-21.04,6.87-21.04,20.61v339.18c0,85.87,42.93,128.8,127.94,128.8h30.91c13.74,0,20.61-6.87,20.61-20.61v-40.79
	C6109.92,905.77,6103.05,899.33,6089.31,899.33z"/>
<path class="st0" d="M6810.59,955.57l-249.01-220.68l245.15-218.96c4.29-3.87,5.58-8.59,3.86-15.03c-2.15-6.01-6.44-9.44-13.31-9.44
	h-63.97c-8.59,0-15.03,0.86-19.75,2.58c-4.29,1.72-8.59,4.29-12.88,9.02l-151.55,136.1l-52.38,46.8L6294.1,503.05
	c-4.29-4.72-9.02-7.3-13.31-9.02c-4.29-1.72-10.73-2.58-19.75-2.58h-65.69c-6.87,0-11.16,3.44-12.45,9.44
	c-1.72,6.44-0.43,11.16,4.29,15.03l243.86,218.96l-248.58,220.68c-4.72,3.87-6.01,8.59-3.87,15.03c1.72,6.01,6.01,9.45,12.88,9.45
	h63.97c9.02,0,15.46-0.86,19.75-2.58c4.29-1.29,8.59-4.29,13.31-9.02l207.37-185.9l53.24,48.09l153.27,137.81
	c4.29,4.72,9.01,7.73,13.31,9.02c4.29,1.72,10.73,2.58,19.75,2.58h65.69c6.87,0,11.16-3.44,12.88-9.45
	C6816.17,964.16,6814.89,959.44,6810.59,955.57z"/>
<path class="st1" d="M1075.82,691.53c-9.02-20.61-22.33-37.78-39.5-50.66c-17.17-13.31-38.21-22.75-62.68-28.33
	c-24.9-5.58-52.81-8.59-83.29-8.59H492.36c-38.21,0-66.12-6.87-83.72-20.61c-17.6-13.74-26.19-36.49-26.19-68.7v-15.89
	c0-31.77,8.59-54.52,26.19-68.26c17.6-13.74,45.51-21.04,83.72-21.04h554.7c15.89,0,23.61-7.73,23.61-23.19v-43.36
	c0-15.03-7.73-22.32-23.61-22.32H479.91c-30.48,0-57.96,2.58-82.43,8.16c-24.47,6.01-45.51,15.03-62.68,28.33
	c-17.17,13.31-30.05,30.05-39.5,50.66c-9.02,20.61-13.31,45.94-13.31,75.99v45.94c0,30.05,4.29,55.38,13.31,76.42
	c9.44,20.61,22.32,37.35,39.5,50.66c17.17,12.88,38.21,22.32,62.68,27.91c24.47,6.01,51.95,8.59,82.43,8.59h399.28
	c38.21,0,65.69,6.87,82.86,20.61c17.17,13.74,25.76,36.49,25.76,68.7v16.74c0,31.77-8.59,54.96-25.76,68.7
	c-17.17,13.74-44.65,20.61-82.86,20.61H315.9c-15.46,0-22.75,7.73-22.75,23.61v42.93c0,15.03,7.3,22.76,22.75,22.76h574.45
	c30.48,0,58.39-3.01,83.29-8.59c24.47-5.58,45.51-15.03,62.68-28.33c17.17-12.88,30.48-30.05,39.5-50.66
	c9.01-20.61,13.74-45.94,13.74-75.99v-46.8C1089.56,737.47,1084.84,712.14,1075.82,691.53z"/>
<path class="st1" d="M1276.32,284.95h-51.52c-14.17,0-21.04,6.87-21.04,20.61v74.28c0,12.88,6.87,19.32,21.04,19.32h51.52
	c13.74,0,20.61-6.44,20.61-19.32v-74.28C1296.93,291.82,1290.06,284.95,1276.32,284.95z M1362.62,897.18h-11.16
	c-20.18,0-34.35-4.72-42.5-13.74s-12.02-23.61-12.02-43.79V509.92c0-13.74-6.87-20.61-20.61-20.61h-51.52
	c-14.17,0-21.04,6.87-21.04,20.61V849.1c0,85.87,42.93,128.8,127.94,128.8h30.91c13.74,0,20.61-6.87,20.61-20.61V916.5
	C1383.23,903.62,1376.36,897.18,1362.62,897.18z"/>
<path class="st1" d="M2302.86,529.24c-26.62-26.62-61.82-39.93-106.48-39.93H2034.1c-30.05,0-55.39,6.44-75.56,18.89
	c-20.61,12.45-36.07,29.62-46.37,51.52c-10.73-21.9-26.19-39.07-46.8-51.52c-20.18-12.45-45.51-18.89-75.56-18.89h-157.57
	c-43.79,0-79.43,13.31-106.04,39.93c-27.05,26.62-40.36,62.25-40.36,106.9v321.14c0,13.74,6.87,20.61,20.61,20.61h51.52
	c13.74,0,20.61-6.87,20.61-20.61V651.17c0-25.33,7.3-45.08,21.04-59.25c14.17-14.6,33.92-21.47,58.82-21.47h126.65
	c25.33,0,45.08,6.87,59.25,21.47c14.6,14.17,21.47,33.92,21.47,59.25v306.12c0,13.74,6.87,20.61,19.75,20.61h51.95
	c13.74,0,20.61-6.87,20.61-20.61V651.17c0-25.33,6.87-45.08,21.47-59.25c14.17-14.6,33.92-21.47,59.25-21.47h131.38
	c24.9,0,44.65,6.87,59.25,21.47c14.17,14.17,21.47,33.92,21.47,59.25v306.12c0,13.74,6.87,20.61,20.61,20.61h51.52
	c13.31,0,19.75-6.87,19.75-20.61V636.15C2342.79,591.5,2329.48,555.86,2302.86,529.24z"/>
<path class="st1" d="M3058.49,529.24c-27.05-26.62-62.25-39.93-106.05-39.93h-328.87c-43.79,0-79,13.31-106.04,39.93
	c-26.62,26.62-40.36,62.25-40.36,106.9v520.78c0,14.17,6.87,21.04,20.61,21.04h51.95c13.74,0,20.61-6.87,20.61-21.04V927.24
	c11.16,16.31,26.19,28.76,45.08,37.35c18.46,8.59,42.07,13.31,70.41,13.31h266.61c43.79,0,79-13.31,106.05-39.93
	c27.05-26.62,40.36-62.25,40.36-106.9V636.15C3098.85,591.5,3085.54,555.86,3058.49,529.24z M3006.97,816.04
	c0,25.33-7.3,45.08-21.9,59.25c-14.17,14.6-33.92,21.9-58.82,21.9h-276.06c-25.33,0-44.65-7.3-58.82-21.9
	c-14.17-14.17-21.04-33.92-21.04-59.25V651.17c0-25.33,6.87-45.08,21.04-59.25c14.17-14.6,33.49-21.47,58.82-21.47h276.06
	c24.9,0,44.65,6.87,58.82,21.47c14.6,14.17,21.9,33.92,21.9,59.25V816.04z"/>
<path class="st1" d="M3386.93,897.18h-11.16c-19.75,0-33.92-4.72-42.08-13.74s-12.45-23.61-12.45-43.79V305.56
	c0-13.74-6.87-20.61-20.61-20.61h-51.52c-13.74,0-20.61,6.87-20.61,20.61V849.1c0,85.87,42.5,128.8,127.51,128.8h30.91
	c14.17,0,21.04-6.87,21.04-20.61V916.5C3407.97,903.62,3401.1,897.18,3386.93,897.18z"/>
<path class="st1" d="M3991.86,773.96c85.01,0,127.51-42.93,127.51-128.8v-27.05c0-85.87-42.51-128.8-127.51-128.8h-338.75
	c-44.22,0-79.43,13.31-106.47,39.93c-26.62,26.62-40.36,62.25-40.36,106.9v194.92c0,44.65,13.74,80.29,40.36,106.9
	c27.05,26.62,62.25,39.93,106.47,39.93h427.19c13.74,0,20.61-6.87,20.61-20.61V916.5c0-12.88-6.87-19.32-20.61-19.32h-401
	c-25.33,0-45.08-7.3-59.25-21.9c-14.6-14.17-21.47-33.92-21.47-59.25v-42.07H3991.86z M3598.59,651.17
	c0-25.33,6.87-45.08,21.47-59.25c14.17-14.6,33.92-21.47,59.25-21.47h289.8c21.47,0,36.49,4.29,45.08,13.74
	c9.01,9.44,13.31,24.04,13.31,44.22v6.44c0,20.18-4.29,34.78-13.31,44.22c-8.59,9.45-23.61,14.17-45.08,14.17h-370.52V651.17z"/>
<path class="st0" d="M4881.98,501.23c-131.65,0-238.38,106.73-238.38,238.38c0,28.98,5.22,56.87,14.76,82.52
	c-8.91,28.08-41.13,33.57-58.04,34.38c-14.04-12.87-32.76-20.7-53.36-20.7c-43.82,0-79.37,35.55-79.37,79.28v0.72
	c-18.18,7.74-39.59,7.02-54.98,4.95v-4.23c0-12.87-6.84-19.35-20.61-19.35h-11.16c-20.16,0-34.38-4.68-42.48-13.77
	c-8.19-9-12.06-23.58-12.06-43.73V305.59c0-13.77-6.84-20.61-21.06-20.61h-51.47c-13.77,0-20.61,6.84-20.61,20.61v543.53
	c0,85.85,42.48,128.77,127.96,128.77h30.87c12.15,0,18.9-5.31,20.25-15.93c14.04-7.56,38.43-18.09,61.82-15.39
	c12.15,28.17,40.22,47.87,72.89,47.87c43.82,0,79.28-35.55,79.28-79.37c0-8.01-1.17-15.84-3.51-23.13
	c11.52-13.23,33.03-31.77,58.58-23.76c42.39,65.96,116.45,109.7,200.68,109.7c131.56,0,238.29-106.73,238.29-238.29
	C5120.27,607.96,5013.55,501.23,4881.98,501.23z M4546.95,949.56c-19.08,0-34.47-15.39-34.47-34.47c0-18.99,15.39-34.38,34.47-34.38
	c18.99,0,34.47,15.39,34.47,34.38C4581.42,934.17,4565.94,949.56,4546.95,949.56z M4881.98,885.3
	c-80.54,0-145.78-65.24-145.78-145.69c0-80.54,65.24-145.69,145.78-145.69c80.45,0,145.69,65.15,145.69,145.69
	C5027.67,820.06,4962.43,885.3,4881.98,885.3z"/>
<g>
	<path class="st0" d="M3619.65,1599.93l-0.96-61.02h18.8l6.69,32.98c0.32,1.49,1.3,2.98,2.95,4.46c1.64,1.49,3.05,2.66,4.22,3.5
		c4.04,2.55,8.44,4.99,13.22,7.33c4.78,2.34,9.85,4.22,15.22,5.66c5.36,1.43,10.86,2.15,16.49,2.15c16.57,0,29.58-3.61,39.04-10.83
		c9.45-7.22,14.18-17.1,14.18-29.64c0-9.45-2.82-17.26-8.45-23.42c-5.63-6.16-13.17-11.21-22.62-15.14
		c-9.14-3.82-18.14-7.09-27.01-9.8c-8.87-2.71-17.55-5.82-26.05-9.32c-12.85-5.31-22.94-12.8-30.27-22.47
		c-7.33-9.66-10.99-21.35-10.99-35.05c0-12.32,3.43-23.29,10.28-32.9c6.85-9.61,16.12-17.21,27.8-22.78
		c11.68-5.58,24.75-8.37,39.2-8.37c8.71,0,17.02,0.53,24.94,1.59c7.91,1.06,15.46,2.39,22.62,3.98c7.17,1.59,13.99,3.19,20.47,4.78
		v58.48h-18.64l-6.37-31.23c-0.32-1.49-1.27-2.95-2.87-4.38s-3.03-2.57-4.3-3.43c-2.44-1.8-5.44-3.48-9-5.02
		c-3.56-1.54-7.52-2.79-11.87-3.74c-4.36-0.96-9.03-1.43-14.02-1.43c-15.08,0-26.79,3.19-35.13,9.56
		c-8.34,6.37-12.51,14.18-12.51,23.42c0,8.29,2.26,16.01,6.77,23.18c4.51,7.17,13.2,13.14,26.05,17.92c8.5,3.08,16.83,6,25.01,8.76
		c8.18,2.76,17.1,6.16,26.77,10.2c7.12,2.97,13.94,6.85,20.47,11.63s11.9,10.91,16.09,18.4c4.2,7.49,6.29,16.81,6.29,27.96
		c0,11.58-3.03,22.6-9.08,33.06c-6.05,10.46-15.61,18.99-28.68,25.57c-13.06,6.58-30.17,9.88-51.3,9.88
		c-7.33,0-15.08-0.74-23.26-2.23c-8.18-1.49-16.52-3.35-25.01-5.58C3636.33,1604.39,3627.94,1602.16,3619.65,1599.93z"/>
	<path class="st0" d="M3885.57,1609.01v-11.63l24.06-6.37c1.91-0.53,3.48-1.41,4.7-2.63c1.22-1.22,1.83-2.95,1.83-5.18v-111.06
		c0-2.33-0.64-4.12-1.91-5.34c-1.27-1.22-2.97-2.2-5.1-2.95l-23.26-7.81v-11.47l62.14-8.6v147.22c0,2.23,0.61,3.98,1.83,5.26
		c1.22,1.27,2.68,2.13,4.38,2.55l23.9,6.37v11.63H3885.57z M3929.23,1403.95c-4.04,0-7.81-0.82-11.31-2.47
		c-3.51-1.65-6.32-4.04-8.45-7.17c-2.12-3.13-3.19-6.82-3.19-11.07c0-6.8,2.28-12.03,6.85-15.69c4.57-3.67,9.93-5.5,16.09-5.5
		c7.12,0,12.88,1.7,17.29,5.1c4.41,3.4,6.61,8.34,6.61,14.82c0,4.57-1.04,8.5-3.11,11.79c-2.07,3.29-4.91,5.82-8.52,7.57
		C3937.89,1403.08,3933.8,1403.95,3929.23,1403.95z"/>
	<path class="st0" d="M4184.96,1609.01v-11.63l15.93-6.21c1.8-0.74,3.32-1.72,4.54-2.95c1.22-1.22,1.83-3.05,1.83-5.5v-78.07
		c0-9.98-0.88-18.51-2.63-25.57c-1.75-7.06-5.15-12.45-10.2-16.17c-5.05-3.72-12.61-5.58-22.71-5.58c-6.8,0-13.94,1.14-21.43,3.42
		c-7.49,2.29-13.68,6.61-18.56,12.99v109.46c0,2.23,0.64,3.9,1.91,5.02s2.76,2.05,4.46,2.79l14.82,6.37v11.63h-78.55v-11.63
		l19.44-6.21c1.7-0.53,3.16-1.43,4.38-2.71c1.22-1.27,1.83-3.03,1.83-5.26v-112.49c0-2.33-0.64-4.12-1.91-5.34
		c-1.27-1.22-2.92-2.2-4.94-2.95l-18.8-7.81v-11.47l54.49-8.76v27.25h2.07c9.24-12.21,18.46-20.02,27.64-23.42
		c9.19-3.4,18.19-5.1,27.01-5.1c7.43,0,14.47,1.06,21.11,3.19c6.64,2.13,12.51,5.66,17.61,10.6s9.03,11.66,11.79,20.16l2.87,2.23
		v113.45c0,2.55,0.64,4.36,1.91,5.42c1.28,1.06,2.76,2.02,4.46,2.87l14.5,6.37v11.63H4184.96z M4291.71,1609.01v-11.63l16.41-6.21
		c1.8-0.74,3.32-1.72,4.54-2.95c1.22-1.22,1.83-3.05,1.83-5.5v-78.07c0-9.98-0.88-18.51-2.63-25.57
		c-1.75-7.06-5.18-12.45-10.28-16.17c-5.1-3.72-12.75-5.58-22.94-5.58c-6.59,0-13.89,1.3-21.91,3.9
		c-8.02,2.6-14.47,7.62-19.36,15.06l-4.3-7.49c8.07-11.26,15.56-19.38,22.47-24.38c6.9-4.99,13.41-8.13,19.52-9.4
		c6.11-1.28,11.92-1.91,17.45-1.91c9.77,0,18.72,1.99,26.85,5.97s14.63,10.22,19.52,18.72c4.88,8.5,7.33,19.55,7.33,33.14v91.78
		c0,2.45,0.64,4.28,1.91,5.5c1.27,1.22,2.76,2.15,4.46,2.79l17.21,6.37v11.63H4291.71z"/>
	<path class="st0" d="M4464.9,1687.72v-11.63l20.24-6.53c1.91-0.64,3.43-1.51,4.54-2.63c1.12-1.12,1.67-2.79,1.67-5.02v-191.2
		c0-2.33-0.64-4.14-1.91-5.42c-1.27-1.27-2.92-2.28-4.94-3.03l-18.8-7.81v-11.31l54.65-8.76v28.36h2.07
		c4.99-7.43,10.57-13.3,16.73-17.61c6.16-4.3,12.64-7.38,19.44-9.24c6.8-1.86,13.54-2.79,20.24-2.79c14.23,0,26.42,3.61,36.57,10.83
		c10.14,7.23,17.95,17.05,23.42,29.48c5.47,12.43,8.21,26.56,8.21,42.38c0,17.53-3.27,33.49-9.8,47.88
		c-6.53,14.39-15.85,25.89-27.96,34.5c-12.11,8.6-26.66,12.91-43.66,12.91c-9.99,0-18.46-1.73-25.41-5.18
		c-6.96-3.45-12.61-7.35-16.97-11.71v7.33v60.23c0,2.23,0.64,3.9,1.91,5.02s2.76,1.94,4.46,2.47l24.7,6.85v11.63H4464.9z
		 M4523.22,1474.86v107.39c3.19,2.02,7.2,3.66,12.03,4.94c4.83,1.27,9.61,2.21,14.34,2.79c4.72,0.58,8.52,0.88,11.39,0.88
		c11.9,0,21.69-2.92,29.4-8.76c7.7-5.84,13.44-13.59,17.21-23.26c3.77-9.67,5.66-20.29,5.66-31.87c0-13.28-1.81-25.23-5.42-35.85
		c-3.61-10.62-9.24-19.04-16.89-25.25c-7.65-6.21-17.53-9.32-29.64-9.32c-7.44,0-14.55,1.57-21.35,4.7
		C4533.15,1464.37,4527.57,1468.91,4523.22,1474.86z"/>
	<path class="st0" d="M4745.64,1609.01v-11.63l24.06-6.37c1.8-0.53,3.32-1.41,4.54-2.63c1.22-1.22,1.83-2.95,1.83-5.18v-188.97
		c0-2.33-0.72-4.14-2.15-5.42c-1.43-1.27-3.05-2.28-4.86-3.03l-24.54-9.08v-11.31l63.26-2.87v220.68c0,2.23,0.66,3.96,1.99,5.18
		c1.33,1.22,2.84,2.1,4.54,2.63l23.26,6.37v11.63H4745.64z"/>
	<path class="st0" d="M4933.49,1609.01v-11.63l24.06-6.37c1.91-0.53,3.48-1.41,4.7-2.63c1.22-1.22,1.83-2.95,1.83-5.18v-111.06
		c0-2.33-0.64-4.12-1.91-5.34c-1.28-1.22-2.98-2.2-5.1-2.95l-23.26-7.81v-11.47l62.14-8.6v147.22c0,2.23,0.61,3.98,1.83,5.26
		c1.22,1.27,2.68,2.13,4.38,2.55l23.9,6.37v11.63H4933.49z M4977.15,1403.95c-4.04,0-7.81-0.82-11.31-2.47
		c-3.5-1.65-6.32-4.04-8.44-7.17c-2.13-3.13-3.19-6.82-3.19-11.07c0-6.8,2.28-12.03,6.85-15.69c4.57-3.67,9.93-5.5,16.09-5.5
		c7.12,0,12.88,1.7,17.29,5.1c4.41,3.4,6.61,8.34,6.61,14.82c0,4.57-1.04,8.5-3.11,11.79c-2.07,3.29-4.91,5.82-8.52,7.57
		C4985.81,1403.08,4981.72,1403.95,4977.15,1403.95z"/>
	<path class="st0" d="M5122.14,1609.01v-11.63l21.99-6.37c1.91-0.53,3.45-1.41,4.62-2.63c1.17-1.22,1.75-2.95,1.75-5.18v-119.66
		h-31.55l0.64-18.16h31.39c1.17-20.92,4.72-37.63,10.67-50.11c5.95-12.48,13.91-21.51,23.9-27.09c9.98-5.58,21.56-8.36,34.73-8.36
		c3.72,0,8.79,0.48,15.22,1.43c6.43,0.96,11.66,2.02,15.69,3.19l-1.12,29.16h-6.21c-3.19-1.27-6.53-2.63-10.04-4.06
		c-3.5-1.43-7.28-2.65-11.31-3.66c-4.04-1.01-8.5-1.51-13.38-1.51c-6.16,0-11.1,0.69-14.82,2.07c-3.72,1.38-6.43,3.29-8.13,5.74
		c-1.49,2.23-2.52,8.02-3.11,17.37c-0.58,9.35-0.93,21.3-1.04,35.85h48.44l-0.8,18.16h-47.48v119.66c0,2.23,0.66,3.98,1.99,5.26
		c1.33,1.27,2.84,2.13,4.54,2.55l25.65,6.37v11.63H5122.14z"/>
	<path class="st0" d="M5329.27,1683.26l1.12-32.82h7.49c1.38,0.74,3.19,1.54,5.42,2.39c2.23,0.85,4.59,1.65,7.09,2.39
		c2.49,0.74,4.8,1.33,6.93,1.75c2.12,0.42,3.77,0.64,4.94,0.64c4.88,0,8.95-0.37,12.19-1.12c3.24-0.74,6.19-2.13,8.84-4.14
		c2.76-2.13,5.28-5.05,7.57-8.76c2.28-3.72,4.72-8.71,7.33-14.98c2.6-6.27,5.71-14.29,9.32-24.06l-11.15-18.8l-54.33-123.64
		c-0.85-2.02-1.99-3.53-3.43-4.54c-1.43-1.01-3.11-1.94-5.02-2.79l-12.43-5.74v-11.47h75.84v11.47l-23.58,7.81l39.67,89.39
		l7.65,19.92h2.71l39.51-104.52l-21.67-12.59v-11.47h63.89v11.47l-14.18,9.56c-1.49,1.06-3.08,2.15-4.78,3.27
		c-1.7,1.12-2.87,2.58-3.5,4.38l-65.17,170.65c-5.21,13.7-11.02,24.22-17.45,31.55c-6.43,7.33-13.3,12.37-20.63,15.14
		c-7.33,2.76-15.08,4.14-23.26,4.14c-2.02,0-4.78-0.21-8.29-0.64c-3.51-0.43-7.01-0.98-10.52-1.67
		C5333.89,1684.72,5331.18,1684,5329.27,1683.26z"/>
	<path class="st0" d="M5595.19,1609.01v-11.63l24.06-6.37c1.91-0.53,3.48-1.41,4.7-2.63c1.22-1.22,1.83-2.95,1.83-5.18v-111.06
		c0-2.33-0.64-4.12-1.91-5.34c-1.28-1.22-2.98-2.2-5.1-2.95l-23.26-7.81v-11.47l62.14-8.6v147.22c0,2.23,0.61,3.98,1.83,5.26
		c1.22,1.27,2.68,2.13,4.38,2.55l23.9,6.37v11.63H5595.19z M5638.85,1403.95c-4.04,0-7.81-0.82-11.31-2.47
		c-3.5-1.65-6.32-4.04-8.44-7.17c-2.13-3.13-3.19-6.82-3.19-11.07c0-6.8,2.28-12.03,6.85-15.69c4.57-3.67,9.93-5.5,16.09-5.5
		c7.12,0,12.88,1.7,17.29,5.1c4.41,3.4,6.61,8.34,6.61,14.82c0,4.57-1.04,8.5-3.11,11.79c-2.07,3.29-4.91,5.82-8.52,7.57
		C5647.5,1403.08,5643.41,1403.95,5638.85,1403.95z"/>
	<path class="st0" d="M5783.84,1609.01v-11.63l19.44-6.37c1.91-0.53,3.45-1.41,4.62-2.63c1.17-1.22,1.75-2.95,1.75-5.18v-112.49
		c0-2.33-0.64-4.12-1.91-5.34c-1.27-1.22-2.98-2.26-5.1-3.11l-18.64-7.81v-11.31l54.49-8.76v27.25h2.07
		c6.37-8.29,12.69-14.44,18.96-18.48c6.27-4.04,12.48-6.72,18.64-8.05c6.16-1.33,12.27-1.99,18.32-1.99
		c10.09,0,19.28,1.99,27.56,5.97c8.29,3.98,14.9,10.22,19.84,18.72c4.94,8.5,7.41,19.55,7.41,33.14v91.62
		c0,2.55,0.61,4.46,1.83,5.74c1.22,1.27,2.73,2.18,4.54,2.71l17.21,6.37v11.63h-78.23v-11.63l16.25-6.37
		c1.91-0.74,3.51-1.7,4.78-2.87c1.27-1.17,1.91-3.03,1.91-5.58v-77.91c0-9.98-0.9-18.51-2.71-25.57
		c-1.81-7.06-5.36-12.45-10.67-16.17c-5.31-3.72-13.22-5.58-23.74-5.58c-6.91,0-14.21,1.14-21.91,3.42
		c-7.7,2.29-14.1,6.61-19.2,12.99v109.46c0,2.23,0.66,3.96,1.99,5.18c1.33,1.22,2.84,2.1,4.54,2.63l14.82,6.37v11.63H5783.84z"/>
	<path class="st0" d="M6148.87,1549.42c-6.37,0-12.48-0.58-18.32-1.75c-5.84-1.17-10.15-2.34-12.91-3.51
		c-2.66,0.85-5.21,2.82-7.65,5.9c-2.44,3.08-3.66,6.96-3.66,11.63c0,4.04,1.3,7.76,3.9,11.15c2.6,3.4,5.55,5.58,8.84,6.53h59.59
		c14.66,0,26.26,2.21,34.81,6.61c8.55,4.41,14.66,9.93,18.32,16.57c3.66,6.64,5.5,13.41,5.5,20.32c0,12.64-4.04,23.84-12.11,33.62
		c-8.07,9.77-18.96,17.42-32.66,22.94c-13.7,5.52-29,8.29-45.89,8.29c-14.45,0-27.43-1.67-38.96-5.02
		c-11.53-3.35-20.61-8.26-27.25-14.74c-6.64-6.48-9.96-14.34-9.96-23.58c0-10.83,3.53-19.47,10.6-25.89
		c7.06-6.43,15.27-10.81,24.62-13.15v-2.07c-3.72-1.17-7.54-3.03-11.47-5.58c-3.93-2.55-7.25-5.84-9.96-9.88
		c-2.71-4.04-4.06-8.92-4.06-14.66c0-6.69,1.54-12.35,4.62-16.97c3.08-4.62,6.9-8.31,11.47-11.07c4.57-2.76,9.08-4.62,13.54-5.58
		v-1.75c-3.93-2.33-8.07-5.44-12.43-9.32c-4.36-3.88-8.02-8.79-10.99-14.74c-2.97-5.95-4.46-13.07-4.46-21.35
		c0-11.47,2.79-21.67,8.36-30.59c5.58-8.92,13.49-15.93,23.74-21.03c10.25-5.1,22.33-7.65,36.25-7.65c7.54,0,14.34,0.43,20.39,1.27
		c6.05,0.85,11.95,1.91,17.69,3.19h56.4l-0.96,20.08l-40.79-2.55v1.43c4.35,5.31,7.86,10.57,10.52,15.77
		c2.65,5.21,3.98,12.06,3.98,20.55c0,16.15-6,29.61-18,40.39C6187.53,1544.03,6170.64,1549.42,6148.87,1549.42z M6153.97,1669.56
		c9.13,0,17.98-1.2,26.53-3.58c8.55-2.39,15.62-6.32,21.19-11.79c5.58-5.47,8.37-12.72,8.37-21.75c0-5.95-2.63-11.82-7.89-17.61
		c-5.26-5.79-13.89-8.68-25.89-8.68h-55.13c-4.25,1.17-8.52,4.14-12.83,8.92s-6.45,11.58-6.45,20.39c0,6.69,1.78,12.27,5.34,16.73
		c3.56,4.46,8.1,7.94,13.62,10.44c5.52,2.5,11.26,4.28,17.21,5.34C6143.98,1669.03,6149.29,1669.56,6153.97,1669.56z
		 M6149.19,1534.76c7.65,0,14.13-1.65,19.44-4.94c5.31-3.29,9.37-8.21,12.19-14.74c2.81-6.53,4.22-14.74,4.22-24.62
		c0-14.23-3.27-24.86-9.8-31.87c-6.53-7.01-15.16-10.52-25.89-10.52c-6.05,0-11.63,1.43-16.73,4.3s-9.22,7.41-12.35,13.62
		c-3.13,6.21-4.7,14.42-4.7,24.62c0,14.87,3.11,25.95,9.32,33.22C6131.1,1531.13,6139.2,1534.76,6149.19,1534.76z"/>
	<path class="st0" d="M6513.89,1609.01v-11.63l24.06-6.37c1.91-0.53,3.48-1.41,4.7-2.63c1.22-1.22,1.83-2.95,1.83-5.18v-111.06
		c0-2.33-0.64-4.12-1.91-5.34c-1.28-1.22-2.98-2.2-5.1-2.95l-23.26-7.81v-11.47l62.14-8.6v147.22c0,2.23,0.61,3.98,1.83,5.26
		c1.22,1.27,2.68,2.13,4.38,2.55l23.9,6.37v11.63H6513.89z M6557.55,1403.95c-4.04,0-7.81-0.82-11.31-2.47
		c-3.5-1.65-6.32-4.04-8.44-7.17c-2.13-3.13-3.19-6.82-3.19-11.07c0-6.8,2.28-12.03,6.85-15.69c4.57-3.67,9.93-5.5,16.09-5.5
		c7.12,0,12.88,1.7,17.29,5.1c4.41,3.4,6.61,8.34,6.61,14.82c0,4.57-1.04,8.5-3.11,11.79c-2.07,3.29-4.91,5.82-8.52,7.57
		C6566.21,1403.08,6562.12,1403.95,6557.55,1403.95z"/>
	<path class="st0" d="M6816.46,1437.89l-1.12,18.16h-59.43v111.37c0,4.99,1.91,9,5.74,12.03c3.82,3.03,8.26,5.23,13.3,6.61
		c5.04,1.38,9.32,2.07,12.83,2.07c3.72,0,8.07-0.64,13.07-1.91c4.99-1.28,8.55-2.44,10.68-3.51h5.42v13.07
		c-1.91,1.27-5.37,3.19-10.36,5.74c-4.99,2.55-10.7,4.91-17.13,7.09c-6.43,2.18-12.88,3.27-19.36,3.27
		c-8.18,0-15.77-1.35-22.79-4.06c-7.01-2.71-12.64-6.58-16.89-11.63c-4.25-5.04-6.37-11.13-6.37-18.24v-121.89h-27.72v-14.66
		c6.05-0.96,11.31-1.99,15.77-3.11c4.46-1.12,8.02-3.32,10.67-6.61c2.65-3.29,4.2-8.6,4.62-15.93l1.59-23.42l26.93-5.1v50.67
		H6816.46z"/>
</g>
<linearGradient id="SVGID_1_" gradientUnits="userSpaceOnUse" x1="274.5486" y1="1417.9338" x2="3440.4106" y2="1417.9338">
	<stop  offset="0" style="stop-color:#2D68D4"/>
	<stop  offset="1" style="stop-color:#606060"/>
</linearGradient>
<rect x="274.55" y="1400.89" class="st2" width="3165.86" height="34.09"/>
<rect x="3480.57" y="1400.89" class="st0" width="91.93" height="34.09"/>
</svg>
